<mxfile host="app.diagrams.net" modified="2021-07-15T21:51:35.817Z" agent="5.0 (Windows)" etag="28u31ww5MfS2W84WUSWp" version="14.7.9" type="github">
  <diagram name="Page-1" id="9f46799a-70d6-7492-0946-bef42562c5a5">
    <mxGraphModel dx="1422" dy="790" grid="1" gridSize="10" guides="1" tooltips="1" connect="1" arrows="1" fold="1" page="1" pageScale="1" pageWidth="1100" pageHeight="850" background="none" math="0" shadow="0">
      <root>
        <mxCell id="0" />
        <mxCell id="1" parent="0" />
        <mxCell id="f2aG1VPdOggWnDsl_45g-58" value="" style="group" vertex="1" connectable="0" parent="1">
          <mxGeometry x="380" y="40" width="180" height="280" as="geometry" />
        </mxCell>
        <mxCell id="f2aG1VPdOggWnDsl_45g-40" value="Gym" style="shape=table;startSize=30;container=1;collapsible=1;childLayout=tableLayout;fixedRows=1;rowLines=0;fontStyle=1;align=center;resizeLast=1;" vertex="1" parent="f2aG1VPdOggWnDsl_45g-58">
          <mxGeometry width="180" height="280" as="geometry" />
        </mxCell>
        <mxCell id="f2aG1VPdOggWnDsl_45g-41" value="" style="shape=partialRectangle;collapsible=0;dropTarget=0;pointerEvents=0;fillColor=none;top=0;left=0;bottom=1;right=0;points=[[0,0.5],[1,0.5]];portConstraint=eastwest;" vertex="1" parent="f2aG1VPdOggWnDsl_45g-40">
          <mxGeometry y="30" width="180" height="30" as="geometry" />
        </mxCell>
        <mxCell id="f2aG1VPdOggWnDsl_45g-42" value="PK" style="shape=partialRectangle;connectable=0;fillColor=none;top=0;left=0;bottom=0;right=0;fontStyle=1;overflow=hidden;" vertex="1" parent="f2aG1VPdOggWnDsl_45g-41">
          <mxGeometry width="30" height="30" as="geometry" />
        </mxCell>
        <mxCell id="f2aG1VPdOggWnDsl_45g-43" value="UniqueID" style="shape=partialRectangle;connectable=0;fillColor=none;top=0;left=0;bottom=0;right=0;align=left;spacingLeft=6;fontStyle=5;overflow=hidden;" vertex="1" parent="f2aG1VPdOggWnDsl_45g-41">
          <mxGeometry x="30" width="150" height="30" as="geometry" />
        </mxCell>
        <mxCell id="f2aG1VPdOggWnDsl_45g-44" value="" style="shape=partialRectangle;collapsible=0;dropTarget=0;pointerEvents=0;fillColor=none;top=0;left=0;bottom=0;right=0;points=[[0,0.5],[1,0.5]];portConstraint=eastwest;" vertex="1" parent="f2aG1VPdOggWnDsl_45g-40">
          <mxGeometry y="60" width="180" height="30" as="geometry" />
        </mxCell>
        <mxCell id="f2aG1VPdOggWnDsl_45g-45" value="" style="shape=partialRectangle;connectable=0;fillColor=none;top=0;left=0;bottom=0;right=0;editable=1;overflow=hidden;" vertex="1" parent="f2aG1VPdOggWnDsl_45g-44">
          <mxGeometry width="30" height="30" as="geometry" />
        </mxCell>
        <mxCell id="f2aG1VPdOggWnDsl_45g-46" value="name: String" style="shape=partialRectangle;connectable=0;fillColor=none;top=0;left=0;bottom=0;right=0;align=left;spacingLeft=6;overflow=hidden;" vertex="1" parent="f2aG1VPdOggWnDsl_45g-44">
          <mxGeometry x="30" width="150" height="30" as="geometry" />
        </mxCell>
        <mxCell id="f2aG1VPdOggWnDsl_45g-47" value="" style="shape=partialRectangle;collapsible=0;dropTarget=0;pointerEvents=0;fillColor=none;top=0;left=0;bottom=0;right=0;points=[[0,0.5],[1,0.5]];portConstraint=eastwest;" vertex="1" parent="f2aG1VPdOggWnDsl_45g-40">
          <mxGeometry y="90" width="180" height="30" as="geometry" />
        </mxCell>
        <mxCell id="f2aG1VPdOggWnDsl_45g-48" value="" style="shape=partialRectangle;connectable=0;fillColor=none;top=0;left=0;bottom=0;right=0;editable=1;overflow=hidden;" vertex="1" parent="f2aG1VPdOggWnDsl_45g-47">
          <mxGeometry width="30" height="30" as="geometry" />
        </mxCell>
        <mxCell id="f2aG1VPdOggWnDsl_45g-49" value="address: String" style="shape=partialRectangle;connectable=0;fillColor=none;top=0;left=0;bottom=0;right=0;align=left;spacingLeft=6;overflow=hidden;" vertex="1" parent="f2aG1VPdOggWnDsl_45g-47">
          <mxGeometry x="30" width="150" height="30" as="geometry" />
        </mxCell>
        <mxCell id="f2aG1VPdOggWnDsl_45g-50" value="" style="shape=partialRectangle;collapsible=0;dropTarget=0;pointerEvents=0;fillColor=none;top=0;left=0;bottom=0;right=0;points=[[0,0.5],[1,0.5]];portConstraint=eastwest;" vertex="1" parent="f2aG1VPdOggWnDsl_45g-40">
          <mxGeometry y="120" width="180" height="30" as="geometry" />
        </mxCell>
        <mxCell id="f2aG1VPdOggWnDsl_45g-51" value="" style="shape=partialRectangle;connectable=0;fillColor=none;top=0;left=0;bottom=0;right=0;editable=1;overflow=hidden;" vertex="1" parent="f2aG1VPdOggWnDsl_45g-50">
          <mxGeometry width="30" height="30" as="geometry" />
        </mxCell>
        <mxCell id="f2aG1VPdOggWnDsl_45g-52" value="postCode: String" style="shape=partialRectangle;connectable=0;fillColor=none;top=0;left=0;bottom=0;right=0;align=left;spacingLeft=6;overflow=hidden;" vertex="1" parent="f2aG1VPdOggWnDsl_45g-50">
          <mxGeometry x="30" width="150" height="30" as="geometry" />
        </mxCell>
        <mxCell id="f2aG1VPdOggWnDsl_45g-53" value="contactNumber: Number" style="shape=partialRectangle;connectable=0;fillColor=none;top=0;left=0;bottom=0;right=0;align=left;spacingLeft=6;overflow=hidden;" vertex="1" parent="f2aG1VPdOggWnDsl_45g-58">
          <mxGeometry x="30" y="150" width="150" height="30" as="geometry" />
        </mxCell>
        <mxCell id="f2aG1VPdOggWnDsl_45g-54" value="minPrice: Number" style="shape=partialRectangle;connectable=0;fillColor=none;top=0;left=0;bottom=0;right=0;align=left;spacingLeft=6;overflow=hidden;" vertex="1" parent="f2aG1VPdOggWnDsl_45g-58">
          <mxGeometry x="30" y="180" width="150" height="30" as="geometry" />
        </mxCell>
        <mxCell id="f2aG1VPdOggWnDsl_45g-55" value="openingTimes: String" style="shape=partialRectangle;connectable=0;fillColor=none;top=0;left=0;bottom=0;right=0;align=left;spacingLeft=6;overflow=hidden;" vertex="1" parent="f2aG1VPdOggWnDsl_45g-58">
          <mxGeometry x="30" y="210" width="150" height="30" as="geometry" />
        </mxCell>
        <mxCell id="f2aG1VPdOggWnDsl_45g-56" value="facilities: ref facilities" style="shape=partialRectangle;connectable=0;fillColor=none;top=0;left=0;bottom=0;right=0;align=left;spacingLeft=6;overflow=hidden;" vertex="1" parent="f2aG1VPdOggWnDsl_45g-58">
          <mxGeometry x="30" y="240" width="150" height="30" as="geometry" />
        </mxCell>
        <mxCell id="f2aG1VPdOggWnDsl_45g-90" style="edgeStyle=orthogonalEdgeStyle;rounded=0;orthogonalLoop=1;jettySize=auto;html=1;" edge="1" parent="1" source="f2aG1VPdOggWnDsl_45g-59">
          <mxGeometry relative="1" as="geometry">
            <mxPoint x="560" y="300" as="targetPoint" />
          </mxGeometry>
        </mxCell>
        <mxCell id="f2aG1VPdOggWnDsl_45g-59" value="Facilities" style="shape=table;startSize=30;container=1;collapsible=1;childLayout=tableLayout;fixedRows=1;rowLines=0;fontStyle=1;align=center;resizeLast=1;" vertex="1" parent="1">
          <mxGeometry x="640" y="160" width="180" height="150" as="geometry" />
        </mxCell>
        <mxCell id="f2aG1VPdOggWnDsl_45g-60" value="" style="shape=partialRectangle;collapsible=0;dropTarget=0;pointerEvents=0;fillColor=none;top=0;left=0;bottom=1;right=0;points=[[0,0.5],[1,0.5]];portConstraint=eastwest;" vertex="1" parent="f2aG1VPdOggWnDsl_45g-59">
          <mxGeometry y="30" width="180" height="30" as="geometry" />
        </mxCell>
        <mxCell id="f2aG1VPdOggWnDsl_45g-61" value="PK" style="shape=partialRectangle;connectable=0;fillColor=none;top=0;left=0;bottom=0;right=0;fontStyle=1;overflow=hidden;" vertex="1" parent="f2aG1VPdOggWnDsl_45g-60">
          <mxGeometry width="30" height="30" as="geometry" />
        </mxCell>
        <mxCell id="f2aG1VPdOggWnDsl_45g-62" value="UniqueID" style="shape=partialRectangle;connectable=0;fillColor=none;top=0;left=0;bottom=0;right=0;align=left;spacingLeft=6;fontStyle=5;overflow=hidden;" vertex="1" parent="f2aG1VPdOggWnDsl_45g-60">
          <mxGeometry x="30" width="150" height="30" as="geometry" />
        </mxCell>
        <mxCell id="f2aG1VPdOggWnDsl_45g-63" value="" style="shape=partialRectangle;collapsible=0;dropTarget=0;pointerEvents=0;fillColor=none;top=0;left=0;bottom=0;right=0;points=[[0,0.5],[1,0.5]];portConstraint=eastwest;" vertex="1" parent="f2aG1VPdOggWnDsl_45g-59">
          <mxGeometry y="60" width="180" height="30" as="geometry" />
        </mxCell>
        <mxCell id="f2aG1VPdOggWnDsl_45g-64" value="" style="shape=partialRectangle;connectable=0;fillColor=none;top=0;left=0;bottom=0;right=0;editable=1;overflow=hidden;" vertex="1" parent="f2aG1VPdOggWnDsl_45g-63">
          <mxGeometry width="30" height="30" as="geometry" />
        </mxCell>
        <mxCell id="f2aG1VPdOggWnDsl_45g-65" value="name: String" style="shape=partialRectangle;connectable=0;fillColor=none;top=0;left=0;bottom=0;right=0;align=left;spacingLeft=6;overflow=hidden;" vertex="1" parent="f2aG1VPdOggWnDsl_45g-63">
          <mxGeometry x="30" width="150" height="30" as="geometry" />
        </mxCell>
        <mxCell id="f2aG1VPdOggWnDsl_45g-66" value="" style="shape=partialRectangle;collapsible=0;dropTarget=0;pointerEvents=0;fillColor=none;top=0;left=0;bottom=0;right=0;points=[[0,0.5],[1,0.5]];portConstraint=eastwest;" vertex="1" parent="f2aG1VPdOggWnDsl_45g-59">
          <mxGeometry y="90" width="180" height="30" as="geometry" />
        </mxCell>
        <mxCell id="f2aG1VPdOggWnDsl_45g-67" value="" style="shape=partialRectangle;connectable=0;fillColor=none;top=0;left=0;bottom=0;right=0;editable=1;overflow=hidden;" vertex="1" parent="f2aG1VPdOggWnDsl_45g-66">
          <mxGeometry width="30" height="30" as="geometry" />
        </mxCell>
        <mxCell id="f2aG1VPdOggWnDsl_45g-68" value="maxCapacity: Number" style="shape=partialRectangle;connectable=0;fillColor=none;top=0;left=0;bottom=0;right=0;align=left;spacingLeft=6;overflow=hidden;" vertex="1" parent="f2aG1VPdOggWnDsl_45g-66">
          <mxGeometry x="30" width="150" height="30" as="geometry" />
        </mxCell>
        <mxCell id="f2aG1VPdOggWnDsl_45g-69" value="" style="shape=partialRectangle;collapsible=0;dropTarget=0;pointerEvents=0;fillColor=none;top=0;left=0;bottom=0;right=0;points=[[0,0.5],[1,0.5]];portConstraint=eastwest;" vertex="1" parent="f2aG1VPdOggWnDsl_45g-59">
          <mxGeometry y="120" width="180" height="30" as="geometry" />
        </mxCell>
        <mxCell id="f2aG1VPdOggWnDsl_45g-70" value="" style="shape=partialRectangle;connectable=0;fillColor=none;top=0;left=0;bottom=0;right=0;editable=1;overflow=hidden;" vertex="1" parent="f2aG1VPdOggWnDsl_45g-69">
          <mxGeometry width="30" height="30" as="geometry" />
        </mxCell>
        <mxCell id="f2aG1VPdOggWnDsl_45g-71" value="" style="shape=partialRectangle;connectable=0;fillColor=none;top=0;left=0;bottom=0;right=0;align=left;spacingLeft=6;overflow=hidden;" vertex="1" parent="f2aG1VPdOggWnDsl_45g-69">
          <mxGeometry x="30" width="150" height="30" as="geometry" />
        </mxCell>
        <mxCell id="f2aG1VPdOggWnDsl_45g-87" value="" style="group" vertex="1" connectable="0" parent="1">
          <mxGeometry x="26" y="30" width="194" height="230" as="geometry" />
        </mxCell>
        <mxCell id="f2aG1VPdOggWnDsl_45g-73" value="User" style="shape=table;startSize=30;container=1;collapsible=1;childLayout=tableLayout;fixedRows=1;rowLines=0;fontStyle=1;align=center;resizeLast=1;" vertex="1" parent="f2aG1VPdOggWnDsl_45g-87">
          <mxGeometry width="180" height="230.00000000000003" as="geometry" />
        </mxCell>
        <mxCell id="f2aG1VPdOggWnDsl_45g-74" value="" style="shape=partialRectangle;collapsible=0;dropTarget=0;pointerEvents=0;fillColor=none;top=0;left=0;bottom=1;right=0;points=[[0,0.5],[1,0.5]];portConstraint=eastwest;" vertex="1" parent="f2aG1VPdOggWnDsl_45g-73">
          <mxGeometry y="30" width="180" height="30" as="geometry" />
        </mxCell>
        <mxCell id="f2aG1VPdOggWnDsl_45g-75" value="PK" style="shape=partialRectangle;connectable=0;fillColor=none;top=0;left=0;bottom=0;right=0;fontStyle=1;overflow=hidden;" vertex="1" parent="f2aG1VPdOggWnDsl_45g-74">
          <mxGeometry width="30" height="30" as="geometry" />
        </mxCell>
        <mxCell id="f2aG1VPdOggWnDsl_45g-76" value="UniqueID" style="shape=partialRectangle;connectable=0;fillColor=none;top=0;left=0;bottom=0;right=0;align=left;spacingLeft=6;fontStyle=5;overflow=hidden;" vertex="1" parent="f2aG1VPdOggWnDsl_45g-74">
          <mxGeometry x="30" width="150" height="30" as="geometry" />
        </mxCell>
        <mxCell id="f2aG1VPdOggWnDsl_45g-77" value="" style="shape=partialRectangle;collapsible=0;dropTarget=0;pointerEvents=0;fillColor=none;top=0;left=0;bottom=0;right=0;points=[[0,0.5],[1,0.5]];portConstraint=eastwest;" vertex="1" parent="f2aG1VPdOggWnDsl_45g-73">
          <mxGeometry y="60" width="180" height="30" as="geometry" />
        </mxCell>
        <mxCell id="f2aG1VPdOggWnDsl_45g-78" value="" style="shape=partialRectangle;connectable=0;fillColor=none;top=0;left=0;bottom=0;right=0;editable=1;overflow=hidden;" vertex="1" parent="f2aG1VPdOggWnDsl_45g-77">
          <mxGeometry width="30" height="30" as="geometry" />
        </mxCell>
        <mxCell id="f2aG1VPdOggWnDsl_45g-79" value="firstName: String" style="shape=partialRectangle;connectable=0;fillColor=none;top=0;left=0;bottom=0;right=0;align=left;spacingLeft=6;overflow=hidden;" vertex="1" parent="f2aG1VPdOggWnDsl_45g-77">
          <mxGeometry x="30" width="150" height="30" as="geometry" />
        </mxCell>
        <mxCell id="f2aG1VPdOggWnDsl_45g-80" value="" style="shape=partialRectangle;collapsible=0;dropTarget=0;pointerEvents=0;fillColor=none;top=0;left=0;bottom=0;right=0;points=[[0,0.5],[1,0.5]];portConstraint=eastwest;" vertex="1" parent="f2aG1VPdOggWnDsl_45g-73">
          <mxGeometry y="90" width="180" height="30" as="geometry" />
        </mxCell>
        <mxCell id="f2aG1VPdOggWnDsl_45g-81" value="" style="shape=partialRectangle;connectable=0;fillColor=none;top=0;left=0;bottom=0;right=0;editable=1;overflow=hidden;" vertex="1" parent="f2aG1VPdOggWnDsl_45g-80">
          <mxGeometry width="30" height="30" as="geometry" />
        </mxCell>
        <mxCell id="f2aG1VPdOggWnDsl_45g-82" value="lastName: String" style="shape=partialRectangle;connectable=0;fillColor=none;top=0;left=0;bottom=0;right=0;align=left;spacingLeft=6;overflow=hidden;" vertex="1" parent="f2aG1VPdOggWnDsl_45g-80">
          <mxGeometry x="30" width="150" height="30" as="geometry" />
        </mxCell>
        <mxCell id="f2aG1VPdOggWnDsl_45g-83" value="" style="shape=partialRectangle;collapsible=0;dropTarget=0;pointerEvents=0;fillColor=none;top=0;left=0;bottom=0;right=0;points=[[0,0.5],[1,0.5]];portConstraint=eastwest;" vertex="1" parent="f2aG1VPdOggWnDsl_45g-73">
          <mxGeometry y="120" width="180" height="30" as="geometry" />
        </mxCell>
        <mxCell id="f2aG1VPdOggWnDsl_45g-84" value="" style="shape=partialRectangle;connectable=0;fillColor=none;top=0;left=0;bottom=0;right=0;editable=1;overflow=hidden;" vertex="1" parent="f2aG1VPdOggWnDsl_45g-83">
          <mxGeometry width="30" height="30" as="geometry" />
        </mxCell>
        <mxCell id="f2aG1VPdOggWnDsl_45g-85" value="" style="shape=partialRectangle;connectable=0;fillColor=none;top=0;left=0;bottom=0;right=0;align=left;spacingLeft=6;overflow=hidden;" vertex="1" parent="f2aG1VPdOggWnDsl_45g-83">
          <mxGeometry x="30" width="150" height="30" as="geometry" />
        </mxCell>
        <mxCell id="f2aG1VPdOggWnDsl_45g-86" value="email: String" style="text;html=1;strokeColor=none;fillColor=none;align=left;verticalAlign=top;spacingLeft=4;spacingRight=4;whiteSpace=wrap;overflow=hidden;rotatable=0;points=[[0,0.5],[1,0.5]];portConstraint=eastwest;" vertex="1" parent="f2aG1VPdOggWnDsl_45g-87">
          <mxGeometry x="34" y="120.00000000000011" width="160" height="39.86666666666667" as="geometry" />
        </mxCell>
        <mxCell id="f2aG1VPdOggWnDsl_45g-91" value="username: String" style="text;html=1;strokeColor=none;fillColor=none;align=left;verticalAlign=top;spacingLeft=4;spacingRight=4;whiteSpace=wrap;overflow=hidden;rotatable=0;points=[[0,0.5],[1,0.5]];portConstraint=eastwest;" vertex="1" parent="f2aG1VPdOggWnDsl_45g-87">
          <mxGeometry x="34" y="150.0000000000001" width="160" height="39.86666666666667" as="geometry" />
        </mxCell>
        <mxCell id="f2aG1VPdOggWnDsl_45g-92" value="username: String" style="text;html=1;strokeColor=none;fillColor=none;align=left;verticalAlign=top;spacingLeft=4;spacingRight=4;whiteSpace=wrap;overflow=hidden;rotatable=0;points=[[0,0.5],[1,0.5]];portConstraint=eastwest;" vertex="1" parent="f2aG1VPdOggWnDsl_45g-87">
          <mxGeometry x="34" y="180.0000000000001" width="160" height="39.86666666666667" as="geometry" />
        </mxCell>
      </root>
    </mxGraphModel>
  </diagram>
</mxfile>
